<?xml version="1.0" standalone="no"?>
<!DOCTYPE svg PUBLIC "-//W3C//DTD SVG 20010904//EN"
 "http://www.w3.org/TR/2001/REC-SVG-20010904/DTD/svg10.dtd">
<svg version="1.0" xmlns="http://www.w3.org/2000/svg"
 width="400.000000pt" height="400.000000pt" viewBox="0 0 400.000000 400.000000"
 preserveAspectRatio="xMidYMid meet">
<metadata>
Created by potrace 1.16, written by Peter Selinger 2001-2019
</metadata>
<g transform="translate(0.000000,400.000000) scale(0.100000,-0.100000)"
fill="#000000" stroke="none">
<path d="M2250 1035 c0 -155 1 -166 21 -186 17 -17 29 -20 61 -16 50 7 58 15
51 49 -4 21 -11 27 -27 25 -20 -2 -21 2 -24 146 l-3 147 -39 0 -40 0 0 -165z"/>
<path d="M590 1015 l0 -175 40 0 39 0 3 96 3 96 75 -95 c71 -91 77 -96 113
-97 l37 0 0 175 0 175 -40 0 -39 0 -3 -102 -3 -102 -80 101 c-72 91 -83 102
-112 103 l-33 0 0 -175z"/>
<path d="M1580 1140 c0 -29 -4 -40 -15 -40 -10 0 -15 -10 -15 -30 0 -20 5 -30
15 -30 12 0 15 -16 15 -80 0 -74 2 -83 26 -107 22 -21 32 -25 66 -20 50 7 62
18 54 51 -5 21 -13 26 -36 26 l-30 0 0 65 c0 63 1 65 25 65 21 0 25 5 25 30 0
25 -4 30 -25 30 -22 0 -25 4 -25 40 l0 40 -40 0 -40 0 0 -40z"/>
<path d="M1033 1099 c-72 -21 -108 -107 -78 -185 28 -75 118 -105 194 -66 19
9 41 27 49 39 13 21 12 22 -20 31 -27 7 -38 5 -61 -12 -26 -19 -30 -19 -54 -6
-54 31 -40 40 61 40 l96 0 0 31 c0 94 -92 157 -187 128z"/>
<path d="M2035 1103 c-41 -9 -75 -26 -75 -37 0 -7 6 -20 13 -30 12 -17 15 -17
50 0 29 14 41 15 62 6 34 -16 34 -47 0 -38 -39 10 -101 -11 -125 -42 -58 -73
41 -163 130 -118 29 14 34 14 47 0 9 -8 27 -14 42 -12 20 2 27 9 29 32 2 16
-1 33 -7 39 -6 6 -11 39 -11 73 0 73 -22 108 -78 124 -38 10 -44 11 -77 3z"/>
<path d="M2677 1100 c-16 -5 -35 -14 -43 -21 -11 -9 -14 -8 -14 5 0 12 -9 16
-35 16 l-35 0 0 -130 0 -130 40 0 40 0 0 78 c0 63 4 82 18 94 30 26 40 29 56
12 12 -12 16 -36 16 -100 l0 -84 41 0 41 0 -4 110 c-3 93 -6 113 -23 129 -25
25 -61 32 -98 21z"/>
<path d="M2939 1101 c-71 -23 -99 -61 -99 -134 0 -124 147 -182 237 -92 29 29
33 39 33 87 0 56 -24 109 -57 126 -28 16 -85 22 -114 13z"/>
<path d="M1260 990 c0 -106 1 -112 26 -137 22 -22 32 -25 71 -20 25 2 52 12
60 20 13 13 17 13 35 -5 10 -10 29 -18 41 -16 18 2 22 9 21 36 0 17 -1 77 -2
132 l-2 100 -40 0 -40 0 0 -80 c0 -86 -17 -120 -60 -120 -28 0 -40 37 -40 126
l0 74 -35 0 -35 0 0 -110z"/>
<path d="M1770 970 l0 -130 35 0 35 0 0 75 c0 84 18 115 65 115 22 0 25 4 25
35 0 31 -3 35 -27 35 -14 0 -35 -7 -45 -17 -17 -15 -18 -15 -18 0 0 13 -9 17
-35 17 l-35 0 0 -130z"/>
<path d="M2410 970 l0 -130 40 0 40 0 0 130 0 130 -40 0 -40 0 0 -130z"/>
</g>
</svg>
